<svg xmlns="http://www.w3.org/2000/svg" width="32" height="32"><path d="M17.467 25.333a1.329 1.329 0 0 1-1.229-.828 1.338 1.338 0 0 1 .295-1.452l6.133-6.107a1.334 1.334 0 0 0 0-1.894l-6.133-6.107a1.334 1.334 0 1 1 1.88-1.894l6.12 6.12a4.001 4.001 0 0 1 0 5.654l-6.12 6.12a1.322 1.322 0 0 1-.947.387z"/><path d="M8.133 25.333a1.329 1.329 0 0 1-1.229-.828 1.338 1.338 0 0 1 .295-1.452L14.252 16 7.199 8.947a1.334 1.334 0 1 1 1.88-1.894l8 8a1.334 1.334 0 0 1 0 1.894l-8 8a1.322 1.322 0 0 1-.947.387z"/></svg>