<svg xmlns="http://www.w3.org/2000/svg" aria-hidden="true" style="width:0;height:0;position:absolute;overflow:hidden"><defs><symbol id="icon-plugAll335x485" viewBox="0 0 22 32"><path fill="#fff" d="M.528 0h21.047c.291 0 .528.236.528.528v30.944a.528.528 0 0 1-.528.528H.528A.528.528 0 0 1 0 31.472V.528C0 .237.236 0 .528 0z" style="fill:var(--color1,#fff)"/><path fill="#9a9a9a" d="M13.782 14.798a2.724 2.724 0 0 0-.388-.165v3.256a2.657 2.657 0 0 0-.924-.168c-.501 0-.998.146-1.452.428v-3.275a2.825 2.825 0 0 0-2.764-.076.264.264 0 0 0-.14.238v3.27a.264.264 0 0 0 .391.236 2.242 2.242 0 0 1 1.061-.279c.546 0 1.05.222 1.452.541.401-.319.905-.541 1.452-.541.383 0 .742.108 1.061.282a.266.266 0 0 0 .391-.236v-3.273c0-.1-.053-.195-.14-.238zm-3.291 3.091c-.301-.111-.61-.168-.924-.168s-.623.057-.924.168v-2.682a2.304 2.304 0 0 1 1.848.003v2.68zm2.375-4.363-1.32 1.353v2.571l1.32-1.218v-2.707z" style="fill:var(--color2,#9a9a9a)"/></symbol><symbol id="icon-plugAll216x316" viewBox="0 0 22 32"><path fill="#fff" d="M.81 0h20.456a.81.81 0 0 1 .81.81v30.38a.81.81 0 0 1-.81.81H.81a.81.81 0 0 1-.81-.81V.81A.81.81 0 0 1 .81 0z" style="fill:var(--color1,#fff)"/><path fill="#9a9a9a" d="M13.93 14.786a2.974 2.974 0 0 0-.406-.171v3.374a2.804 2.804 0 0 0-.967-.174 2.89 2.89 0 0 0-1.519.443v-3.393a2.984 2.984 0 0 0-2.892-.079.274.274 0 0 0-.146.247v3.388a.275.275 0 0 0 .409.244c.334-.177.71-.289 1.11-.289.572 0 1.099.23 1.519.561.42-.331.947-.561 1.519-.561.4 0 .776.112 1.11.292a.276.276 0 0 0 .409-.244v-3.39a.274.274 0 0 0-.146-.247zm-3.444 3.203c-.315-.115-.638-.174-.967-.174s-.652.059-.967.174V15.21a2.426 2.426 0 0 1 1.934.003v2.776zm2.485-4.521L11.59 14.87v2.664l1.381-1.262v-2.804z" style="fill:var(--color2,#9a9a9a)"/></symbol><symbol id="icon-plugAll180x256" viewBox="0 0 23 32"><path fill="#fff" d="M1 0h20.5a1 1 0 0 1 1 1v30a1 1 0 0 1-1 1H1a1 1 0 0 1-1-1V1a1 1 0 0 1 1-1z" style="fill:var(--color1,#fff)"/><path fill="#9a9a9a" d="M13.867 14.955a2.481 2.481 0 0 0-.367-.156v3.085a2.52 2.52 0 0 0-.875-.159c-.475 0-.945.139-1.375.405v-3.103a2.671 2.671 0 0 0-2.617-.072.252.252 0 0 0-.133.226v3.098a.25.25 0 0 0 .37.223 2.128 2.128 0 0 1 1.005-.264c.518 0 .995.21 1.375.513.38-.303.857-.513 1.375-.513.363 0 .703.103 1.005.267.04.02.08.031.12.031.13 0 .25-.105.25-.254v-3.1a.25.25 0 0 0-.133-.226zm-3.117 2.928c-.285-.105-.578-.159-.875-.159s-.59.054-.875.159v-2.541a2.184 2.184 0 0 1 1.75.003v2.539zM13 13.75l-1.25 1.282v2.436L13 16.314V13.75z" style="fill:var(--color2,#9a9a9a)"/></symbol><symbol id="icon-plugAll116x165" viewBox="0 0 23 32"><path fill="#fff" d="M1.552 0h19.394c.857 0 1.552.695 1.552 1.552v28.897c0 .857-.695 1.552-1.552 1.552H1.552A1.552 1.552 0 0 1 0 30.449V1.552C0 .695.695 0 1.552 0z" style="fill:var(--color1,#fff)"/><path fill="#9a9a9a" d="M14.202 14.978a2.899 2.899 0 0 0-.415-.182v3.589a2.771 2.771 0 0 0-.987-.185c-.536 0-1.066.161-1.552.471v-3.61a2.982 2.982 0 0 0-1.552-.442 2.94 2.94 0 0 0-1.402.358.293.293 0 0 0-.149.263v3.604c0 .173.133.295.282.295.045 0 .09-.012.135-.036a2.346 2.346 0 0 1 1.134-.307c.584 0 1.123.245 1.552.597.429-.352.968-.597 1.552-.597.409 0 .793.119 1.134.31.045.024.09.036.135.036a.288.288 0 0 0 .282-.295V15.24a.294.294 0 0 0-.149-.263zm-3.518 3.407c-.322-.122-.652-.185-.987-.185s-.666.063-.987.185v-2.957a2.396 2.396 0 0 1 1.974.003v2.954zm2.539-4.809-1.41 1.492v2.835l1.41-1.343v-2.984z" style="fill:var(--color2,#9a9a9a)"/></symbol><symbol id="icon-plug335x485" viewBox="0 0 34 32"><path fill="#9a9a9a" d="M32.716 8.869a15.813 15.813 0 0 0-2.24-.953v18.801a15.321 15.321 0 0 0-5.333-.969c-2.895 0-5.76.844-8.381 2.469V9.306c-2.469-1.454-5.318-2.313-8.381-2.313-2.728 0-5.303.688-7.573 1.875-.503.25-.808.797-.808 1.375v18.88c0 .906.716 1.547 1.524 1.547.244 0 .488-.063.731-.188 1.844-.985 3.916-1.61 6.126-1.61 3.154 0 6.065 1.282 8.381 3.126 2.316-1.844 5.227-3.126 8.381-3.126 2.21 0 4.282.625 6.126 1.625.244.125.488.188.731.188.792 0 1.524-.641 1.524-1.547V10.243c0-.578-.305-1.125-.808-1.375zM13.714 26.717c-1.737-.641-3.52-.969-5.333-.969s-3.596.328-5.333.969V11.229a13.263 13.263 0 0 1 5.333-1.11c1.829 0 3.642.391 5.333 1.125v15.473zM27.429 1.524 19.81 9.338v14.847l7.619-7.033V1.523z" style="fill:var(--color2,#9a9a9a)"/></symbol><symbol id="icon-plug216x316" viewBox="0 0 33 32"><path fill="#9a9a9a" d="M32.306 9.388a15.727 15.727 0 0 0-2.212-.932v18.38a15.28 15.28 0 0 0-5.266-.947c-2.859 0-5.688.825-8.276 2.414V9.816c-2.438-1.421-5.251-2.261-8.276-2.261-2.693 0-5.236.672-7.478 1.833-.497.244-.797.779-.797 1.345v18.456c0 .886.707 1.513 1.505 1.513.241 0 .482-.061.722-.183 1.821-.963 3.867-1.574 6.049-1.574 3.115 0 5.989 1.253 8.276 3.056 2.287-1.803 5.161-3.056 8.276-3.056 2.182 0 4.228.611 6.049 1.589.241.122.482.183.722.183.782 0 1.505-.626 1.505-1.513V10.732c0-.565-.301-1.1-.798-1.345zM13.542 26.836c-1.715-.626-3.476-.947-5.266-.947s-3.551.321-5.266.947V11.695a13.221 13.221 0 0 1 5.266-1.085c1.806 0 3.596.382 5.266 1.1v15.126zM27.085 2.207l-7.524 7.639v14.515l7.524-6.875V2.208z" style="fill:var(--color2,#9a9a9a)"/></symbol><symbol id="icon-plug180x256" viewBox="0 0 32 32"><path fill="#9a9a9a" d="M31.229 9.921a15.221 15.221 0 0 0-2.138-.91v17.947A14.622 14.622 0 0 0 24 26.033c-2.764 0-5.498.806-8 2.357V10.339c-2.356-1.387-5.076-2.208-8-2.208-2.604 0-5.062.656-7.229 1.79-.48.239-.771.761-.771 1.313v18.021c0 .865.684 1.477 1.455 1.477.233 0 .465-.06.698-.179 1.76-.94 3.738-1.537 5.847-1.537 3.011 0 5.789 1.223 8 2.984 2.211-1.76 4.989-2.984 8-2.984 2.109 0 4.087.597 5.847 1.552.233.119.465.179.698.179.756 0 1.455-.612 1.455-1.477V11.234c0-.552-.291-1.074-.771-1.313zM13.091 26.958c-1.658-.612-3.36-.925-5.091-.925s-3.433.313-5.091.925V12.174a12.672 12.672 0 0 1 10.182.015v14.769zM26.182 2.909l-7.273 7.459V24.54l7.273-6.713V2.909z" style="fill:var(--color2,#9a9a9a)"/></symbol><symbol id="icon-plug116x165" viewBox="0 0 30 32"><path fill="#9a9a9a" d="M29.392 10.57a13.954 13.954 0 0 0-2.012-.883v17.419a13.392 13.392 0 0 0-4.791-.898c-2.601 0-5.175.782-7.529 2.288v-17.52c-2.218-1.347-4.778-2.143-7.529-2.143-2.45 0-4.764.637-6.804 1.738-.452.232-.726.738-.726 1.274v17.491c0 .84.643 1.433 1.369 1.433.219 0 .438-.058.657-.174 1.656-.912 3.518-1.491 5.503-1.491 2.834 0 5.449 1.187 7.529 2.896 2.081-1.709 4.696-2.896 7.529-2.896 1.985 0 3.847.579 5.503 1.506.219.116.438.174.657.174.712 0 1.369-.594 1.369-1.433V11.845c0-.536-.274-1.043-.726-1.274zM12.321 27.106c-1.561-.594-3.162-.898-4.791-.898s-3.231.304-4.791.898V12.757a11.624 11.624 0 0 1 4.791-1.028c1.643 0 3.272.362 4.791 1.043v14.335zM24.642 3.765l-6.845 7.24v13.756l6.845-6.516V3.765z" style="fill:var(--color2,#9a9a9a)"/></symbol><symbol id="icon-dump" viewBox="0 0 32 32"><path stroke-linejoin="round" stroke-linecap="round" stroke-width="2.909" d="M12 4h8M4 8h24m-2.667 0-.935 14.026c-.14 2.104-.21 3.157-.665 3.954a4 4 0 0 1-1.731 1.619c-.826.4-1.881.4-3.99.4h-4.025c-2.109 0-3.163 0-3.99-.4a4.005 4.005 0 0 1-1.731-1.619c-.455-.798-.525-1.85-.665-3.954L6.666 8m6.667 6v6.667M18.667 14v6.667"/></symbol><symbol id="icon-fi-ss-caret-down" viewBox="0 0 32 32"><path fill="#9a9a9a" d="M7.744 12h16.513l-7.423 8.391c-.221.25-.521.39-.834.39s-.613-.14-.834-.39L7.744 12z" style="fill:var(--color2,#9a9a9a)"/></symbol><symbol id="icon-arrow-narrow-right" viewBox="0 0 32 32"><path fill="none" stroke="#9a9a9a" stroke-linecap="round" stroke-linejoin="round" stroke-width="3.2" d="M5.333 16h21.333m.001 0-8-8m8 8-8 8" style="stroke:var(--color2,#9a9a9a)"/></symbol><symbol id="icon-scroll" viewBox="0 0 55 32"><path fill="#fff" style="fill:var(--color1,#fff)" d="M1.091 25.309 25.527.8c.291-.291.606-.496.945-.617.339-.122.703-.183 1.091-.183s.752.061 1.091.183c.339.12.655.326.946.617l24.509 24.509c.679.679 1.018 1.527 1.018 2.545s-.364 1.891-1.091 2.618c-.727.727-1.576 1.091-2.545 1.091s-1.818-.364-2.545-1.091L27.564 9.09 6.182 30.472c-.679.679-1.515 1.018-2.508 1.018-.995 0-1.856-.364-2.583-1.091S0 28.823 0 27.854c0-.97.364-1.818 1.091-2.545z"/></symbol><symbol id="icon-logo-color" viewBox="0 0 32 32"><path fill="#f6f6f6" style="fill:var(--color1,#f6f6f6)" d="m0 0 16.343 16.171L32 32V0H0z"/><path fill="#f6f6f6" style="fill:var(--color1,#f6f6f6)" d="M4.457 4.229 16.4 16.058l11.257 11.486h-23.2V4.23z"/><path fill="#4f2ee8" style="fill:var(--color2,#4f2ee8)" d="M27.733 27.618 15.79 15.789 4.533 4.303h23.2v23.314z"/><path fill="#4f2ee8" style="fill:var(--color2,#4f2ee8)" d="m9.257 9.029 13.6 13.6h-13.6v-13.6z"/><path fill="#f6f6f6" style="fill:var(--color1,#f6f6f6)" d="m9.257 9.029 13.6 13.6v-13.6h-13.6z"/></symbol><symbol id="icon-arrow-narrow-right-color" viewBox="0 0 32 32"><path fill="none" stroke="#eac645" style="stroke:var(--color1,#eac645)" stroke-linejoin="round" stroke-linecap="round" stroke-width="3.2" d="M5.333 16h21.333m.001 0-8-8m8 8-8 8"/></symbol><symbol id="icon-uil_cart" viewBox="0 0 32 32"><path d="M25.334 9.333h-4V8a5.332 5.332 0 1 0-10.666 0v1.333h-4a1.335 1.335 0 0 0-1.334 1.334v14.667a4.003 4.003 0 0 0 4 4h13.333a4.003 4.003 0 0 0 4-4V10.667a1.335 1.335 0 0 0-1.334-1.334zM13.334 8a2.668 2.668 0 0 1 5.334 0v1.333h-5.333V8zM24 25.333a1.335 1.335 0 0 1-1.334 1.334H9.333a1.335 1.335 0 0 1-1.334-1.334V12h2.667v1.333a1.335 1.335 0 0 0 2.277.943c.25-.251.39-.589.39-.943V12h5.333v1.333a1.335 1.335 0 0 0 2.277.943c.25-.251.391-.589.391-.943V12h2.667v13.333z"/></symbol><symbol id="icon-slider" viewBox="0 0 32 32"><path d="M15.053 17.867a1.334 1.334 0 0 0 1.894 0l6.107-6.12a1.344 1.344 0 0 1 .947-.395 1.331 1.331 0 0 1 .947.395 1.336 1.336 0 0 1 0 1.88l-6.12 6.12a4.001 4.001 0 0 1-5.654 0l-6.12-6.12a1.337 1.337 0 0 1 .434-2.172 1.331 1.331 0 0 1 1.46.292l6.107 6.12z"/></symbol><symbol id="icon-gerb" viewBox="0 0 20 32"><path d="M9.005 30.888a8.64 8.64 0 0 1-3.414-5.351H0V2.42c2.991 1.443 5.153 4.599 5.388 7.876l.846 6.493-.407-.045c-.893 0-1.676.812-1.676 1.608 0 .752.595 1.383 1.378 1.548l1.018.226c1.676-3.051 2.631-6.042 2.631-8.973 0-2.645-.36-5.291-.423-7.996 0-1.202.486-2.3 1.253-3.156.783.857 1.253 1.954 1.253 3.156 0 2.705-.423 5.351-.423 7.996 0 2.931.955 5.922 2.631 8.973l1.018-.226c.783-.165 1.378-.812 1.378-1.548 0-.812-.783-1.608-1.676-1.608l-.423.06.846-6.493c.423-3.277 2.396-6.448 5.388-7.876v23.117h-5.576c-.423 2.179-1.613 4.148-3.414 5.351-.423.286-.783.631-1.018 1.097-.219-.466-.579-.812-.987-1.112zM2.647 17.556c.235-.857.893-1.608 1.738-2.074l-.658-5.351a8.288 8.288 0 0 0-2.036-4.374v11.784h.955v.015zm2.819 6.373c0-.812.125-1.548.298-2.3l-.783-.18c-1.143-.346-2.036-1.203-2.334-2.3h-.955v4.78h3.774zm3.712 0c0-.977-.783-1.834-1.801-1.954-.172.631-.298 1.263-.298 1.954h2.099zm0 1.623H7.314c.298 1.263.955 2.42 1.864 3.397v-3.397zm2.631-5.005c-.72-1.262-1.378-2.585-1.801-3.968-.423 1.383-1.081 2.706-1.801 3.968.72.165 1.316.631 1.801 1.157.486-.526 1.081-.992 1.801-1.157zm1.143 3.382c0-.691-.125-1.323-.297-1.954-1.018.12-1.801.977-1.801 1.954h2.099zm-.235 1.623h-1.864v3.397c.908-.992 1.566-2.134 1.864-3.397zm5.623-1.623v-4.78h-.955c-.298 1.097-1.206 1.954-2.334 2.3l-.783.18c.172.752.298 1.488.298 2.3h3.774zm0-6.373V5.757c-1.081 1.202-1.864 2.706-2.036 4.374l-.658 5.351c.846.466 1.504 1.203 1.739 2.074h.955z"/></symbol><symbol id="icon-align-left" viewBox="0 0 32 32"><path d="M3.498 6.936c-.218.065-.503.358-.566.582a2.345 2.345 0 0 0 .003.98l-.003-.016c.066.235.349.515.591.585.25.072 24.699.072 24.959 0 .235-.066.515-.349.585-.591a2.282 2.282 0 0 0-.002-.969l.003.015c-.07-.242-.35-.525-.585-.591-.239-.066-24.762-.064-24.984.003zm0 5.333c-.218.065-.503.359-.566.583a2.345 2.345 0 0 0 .003.98l-.003-.016c.066.235.349.515.591.585.25.072 19.367.071 19.625-.001.235-.065.517-.349.585-.59a2.275 2.275 0 0 0-.002-.969l.003.015c-.069-.241-.35-.525-.585-.59-.238-.066-19.429-.064-19.65.002zm0 5.333c-.218.065-.503.359-.566.582a2.345 2.345 0 0 0 .003.98l-.003-.016c.066.235.349.517.591.585.25.072 24.699.072 24.959 0 .235-.065.515-.349.585-.59a2.29 2.29 0 0 0 0-.954c-.07-.241-.35-.525-.585-.59-.239-.066-24.762-.064-24.984.002zm0 5.334c-.218.065-.503.358-.566.582a2.345 2.345 0 0 0 .003.98l-.003-.016c.066.235.349.515.591.585.25.072 19.367.071 19.625 0 .235-.066.517-.349.585-.591a2.282 2.282 0 0 0-.002-.969l.003.015c-.069-.242-.35-.525-.585-.591-.238-.066-19.429-.063-19.65.003z"/></symbol><symbol id="icon-lock" viewBox="0 0 32 32"><path d="M14.751 2.963a7.866 7.866 0 0 0-6.226 5.479l-.014.056c-.257.886-.297 1.331-.297 3.257v1.783l-.36.034c-1.35.129-2.006.345-2.875.944-.793.547-1.498 1.496-1.797 2.417-.256.792-.275 1.098-.275 4.4 0 3.301.019 3.607.275 4.4.304.939 1.032 1.904 1.858 2.462.658.445 1.16.647 2 .803.472.088 1.093.095 8.96.095s8.488-.007 8.96-.095c.84-.157 1.342-.359 2-.803.826-.558 1.554-1.522 1.858-2.462.256-.793.275-1.099.275-4.4 0-3.302-.019-3.608-.275-4.4-.304-.941-1.032-1.904-1.858-2.463-.824-.557-1.499-.773-2.814-.898l-.36-.034v-1.783c0-1.926-.04-2.371-.297-3.257-.859-2.891-3.271-5.051-6.245-5.531l-.045-.006c-.611-.098-1.855-.097-2.448.002zm2.369 2.299c1.75.345 3.32 1.665 3.997 3.36.363.909.399 1.194.401 3.165l.002 1.734H10.48l.002-1.734c.002-1.97.038-2.256.401-3.165.871-2.181 3.074-3.599 5.383-3.465.25.015.634.062.854.105zm6.485 10.576c.511.027 1.061.087 1.253.136.855.221 1.616.982 1.835 1.835.247.96.247 6.089 0 7.048-.219.854-.981 1.615-1.835 1.835-.601.155-2.011.185-8.857.185s-8.256-.03-8.857-.185c-.855-.221-1.616-.982-1.835-1.835-.248-.96-.247-6.09 0-7.048.221-.856.979-1.614 1.839-1.838.191-.049.683-.107 1.094-.129 1.091-.057 14.294-.062 15.365-.005z"/></symbol><symbol id="icon-mail" viewBox="0 0 32 32"><path d="M6.4 4.248c-.475.049-1.258.195-1.51.282-.931.32-1.833.997-2.374 1.782-.501.726-.687 1.19-.861 2.142-.104.568-.107.799-.106 7.36 0 6.487.016 7.271.161 8.026a4.853 4.853 0 0 0 1.98 3.012l.016.01c.658.445 1.16.646 2 .802.474.089 1.15.095 10.294.095s9.819-.006 10.294-.095c.869-.162 1.357-.362 2.061-.848a4.82 4.82 0 0 0 1.93-2.946l.005-.031c.145-.755.161-1.539.161-8.026.001-6.561-.002-6.792-.106-7.36-.127-.694-.222-1.007-.439-1.44-.378-.759-.918-1.394-1.551-1.831-.682-.47-1.173-.677-2.008-.845-.417-.085-1.216-.093-10.106-.101-5.31-.005-9.737 0-9.84.01zm18.537 2.256c.512.027 1.062.087 1.254.137.845.218 1.614.981 1.83 1.811.065.251.069.334.018.383-.198.19-11.107 7.776-11.387 7.919-.265.135-.401.17-.651.17s-.386-.035-.651-.17c-.28-.143-11.19-7.729-11.387-7.919-.05-.049-.047-.131.018-.383.217-.834.984-1.593 1.834-1.814.191-.05.682-.109 1.093-.13 1.091-.057 16.959-.061 18.031-.005zm-17.84 7.322c1.77 1.24 3.216 2.273 3.211 2.298-.005.024-1.456 1.351-3.225 2.949-3.099 2.799-3.218 2.899-3.25 2.755-.051-.229-.053-10.255-.001-10.255.025 0 1.495 1.014 3.265 2.253zm21.11 2.8c-.003 2.779-.022 5.121-.04 5.202-.032.144-.151.043-3.25-2.755-1.769-1.598-3.221-2.925-3.225-2.949-.008-.048 6.4-4.551 6.477-4.551.025 0 .042 2.273.039 5.053zm-14.969 1.489c1.325.896 1.801 1.082 2.762 1.082.962 0 1.438-.186 2.767-1.085.507-.344.945-.618.971-.609s1.789 1.587 3.914 3.507l3.867 3.491-.2.206c-.306.3-.686.525-1.111.646l-.018.004c-.615.159-2.048.185-10.191.185s-9.576-.026-10.191-.185a2.613 2.613 0 0 1-1.13-.651l-.2-.206 3.88-3.504c2.134-1.928 3.897-3.505 3.919-3.505s.453.28.959.622z"/></symbol><symbol id="icon-x-close" viewBox="0 0 32 32"><path d="M7.626 6.245c-.291.085-.749.427-1.029.774-.432.533-.509 1.054-.24 1.616.088.184 1.011 1.143 3.665 3.806l3.547 3.56-3.551 3.56c-3.907 3.918-3.806 3.799-3.805 4.44 0 .449.157.77.586 1.199.429.43.75.586 1.199.586.634 0 .526.093 4.44-3.808l3.56-3.547 3.56 3.547c3.914 3.901 3.806 3.808 4.44 3.808.449 0 .77-.157 1.199-.586.43-.429.586-.75.586-1.199 0-.634.093-.526-3.808-4.44l-3.547-3.56 3.547-3.56c3.901-3.914 3.808-3.806 3.808-4.44 0-.449-.157-.77-.586-1.199-.429-.43-.75-.586-1.199-.586-.634 0-.526-.093-4.44 3.808l-3.56 3.547-3.56-3.547c-2.721-2.712-3.619-3.576-3.814-3.67-.29-.138-.728-.186-1-.109z"/></symbol></defs></svg>