<!-- Generated by IcoMoon.io -->
<svg version="1.1" xmlns="http://www.w3.org/2000/svg" width="32" height="32" viewBox="0 0 32 32">
<title>first</title>
<path d="M13.973 25.333c-0.35-0.001-0.685-0.14-0.933-0.387l-6.12-6.12c-0.749-0.75-1.17-1.767-1.17-2.827s0.421-2.077 1.17-2.827l6.12-6.12c0.25-0.248 0.588-0.388 0.94-0.388s0.69 0.139 0.94 0.388c0.125 0.124 0.224 0.271 0.292 0.434s0.103 0.337 0.103 0.513-0.035 0.35-0.103 0.513c-0.068 0.162-0.167 0.31-0.292 0.434l-6.12 6.107c-0.125 0.124-0.224 0.271-0.292 0.434s-0.103 0.337-0.103 0.513c0 0.176 0.035 0.35 0.103 0.513s0.167 0.31 0.292 0.434l6.12 6.107c0.125 0.124 0.224 0.271 0.292 0.434s0.103 0.337 0.103 0.513c0 0.176-0.035 0.35-0.103 0.513s-0.167 0.31-0.292 0.434c-0.125 0.123-0.272 0.221-0.435 0.288s-0.336 0.1-0.512 0.099z"></path>
<path d="M23.307 25.333c-0.35-0.001-0.685-0.14-0.933-0.387l-8-8c-0.125-0.124-0.224-0.271-0.292-0.434s-0.103-0.337-0.103-0.513c0-0.176 0.035-0.35 0.103-0.513s0.167-0.31 0.292-0.434l8-8c0.25-0.248 0.588-0.388 0.94-0.388s0.69 0.139 0.94 0.388c0.125 0.124 0.224 0.271 0.292 0.434s0.103 0.337 0.103 0.513-0.035 0.35-0.103 0.513c-0.068 0.162-0.167 0.31-0.292 0.434l-7.053 7.053 7.053 7.053c0.125 0.124 0.224 0.271 0.292 0.434s0.103 0.337 0.103 0.513c0 0.176-0.035 0.35-0.103 0.513s-0.167 0.31-0.292 0.434c-0.125 0.123-0.272 0.221-0.435 0.288s-0.336 0.1-0.512 0.099z"></path>
</svg>
