<!-- Generated by IcoMoon.io -->
<svg version="1.1" xmlns="http://www.w3.org/2000/svg" width="32" height="32" viewBox="0 0 32 32">
<title>last</title>
<path d="M17.467 25.333c-0.264-0.001-0.521-0.080-0.74-0.228s-0.389-0.356-0.489-0.6-0.125-0.512-0.073-0.771c0.053-0.258 0.18-0.495 0.368-0.681l6.133-6.107c0.125-0.124 0.224-0.271 0.292-0.434s0.103-0.337 0.103-0.513c0-0.176-0.035-0.35-0.103-0.513s-0.167-0.31-0.292-0.434l-6.133-6.107c-0.125-0.124-0.224-0.271-0.292-0.434s-0.103-0.337-0.103-0.513 0.035-0.35 0.103-0.513c0.068-0.162 0.167-0.31 0.292-0.434 0.25-0.248 0.588-0.388 0.94-0.388s0.69 0.139 0.94 0.388l6.12 6.12c0.749 0.75 1.17 1.767 1.17 2.827s-0.421 2.077-1.17 2.827l-6.12 6.12c-0.125 0.123-0.272 0.221-0.435 0.288s-0.336 0.1-0.512 0.099z"></path>
<path d="M8.133 25.333c-0.264-0.001-0.521-0.080-0.74-0.228s-0.389-0.356-0.489-0.6-0.125-0.512-0.073-0.771c0.053-0.258 0.18-0.495 0.368-0.681l7.053-7.053-7.053-7.053c-0.125-0.124-0.224-0.271-0.292-0.434s-0.103-0.337-0.103-0.513c0-0.176 0.035-0.35 0.103-0.513s0.167-0.31 0.292-0.434c0.25-0.248 0.588-0.388 0.94-0.388s0.69 0.139 0.94 0.388l8 8c0.125 0.124 0.224 0.271 0.292 0.434s0.103 0.337 0.103 0.513c0 0.176-0.035 0.35-0.103 0.513s-0.167 0.31-0.292 0.434l-8 8c-0.125 0.123-0.272 0.221-0.435 0.288s-0.336 0.1-0.512 0.099z"></path>
</svg>
