<svg xmlns="http://www.w3.org/2000/svg" aria-hidden="true" style="position:absolute;width:0;height:0;overflow:hidden"><defs>
<symbol id="icon-plugAll335x485" viewBox="0 0 22 32"><path fill="#fff" d="M.528 0h21.047c.291 0 .528.236.528.528v30.944a.528.528 0 0 1-.528.528H.528A.528.528 0 0 1 0 31.472V.528C0 .237.236 0 .528 0z" style="fill:var(--color1, #fff)"/><path fill="#9a9a9a" d="M13.782 14.798a2.724 2.724 0 0 0-.388-.165v3.256a2.657 2.657 0 0 0-.924-.168c-.501 0-.998.146-1.452.428v-3.275a2.825 2.825 0 0 0-2.764-.076.264.264 0 0 0-.14.238v3.27a.264.264 0 0 0 .391.236 2.242 2.242 0 0 1 1.061-.279c.546 0 1.05.222 1.452.541.401-.319.905-.541 1.452-.541.383 0 .742.108 1.061.282a.266.266 0 0 0 .391-.236v-3.273c0-.1-.053-.195-.14-.238zm-3.291 3.091c-.301-.111-.61-.168-.924-.168s-.623.057-.924.168v-2.682a2.304 2.304 0 0 1 1.848.003v2.68zm2.375-4.363-1.32 1.353v2.571l1.32-1.218v-2.707z" style="fill:var(--color2, #9a9a9a)"/></symbol>
<symbol id="icon-plugAll216x316" viewBox="0 0 22 32"><path fill="#fff" d="M.81 0h20.456a.81.81 0 0 1 .81.81v30.38a.81.81 0 0 1-.81.81H.81a.81.81 0 0 1-.81-.81V.81A.81.81 0 0 1 .81 0z" style="fill:var(--color1, #fff)"/><path fill="#9a9a9a" d="M13.93 14.786a2.974 2.974 0 0 0-.406-.171v3.374a2.804 2.804 0 0 0-.967-.174 2.89 2.89 0 0 0-1.519.443v-3.393a2.984 2.984 0 0 0-2.892-.079.274.274 0 0 0-.146.247v3.388a.275.275 0 0 0 .409.244c.334-.177.71-.289 1.11-.289.572 0 1.099.23 1.519.561.42-.331.947-.561 1.519-.561.4 0 .776.112 1.11.292a.276.276 0 0 0 .409-.244v-3.39a.274.274 0 0 0-.146-.247zm-3.444 3.203c-.315-.115-.638-.174-.967-.174s-.652.059-.967.174V15.21a2.426 2.426 0 0 1 1.934.003v2.776zm2.485-4.521L11.59 14.87v2.664l1.381-1.262v-2.804z" style="fill:var(--color2, #9a9a9a)"/></symbol>
<symbol id="icon-plugAll180x256" viewBox="0 0 23 32"><path fill="#fff" d="M1 0h20.5a1 1 0 0 1 1 1v30a1 1 0 0 1-1 1H1a1 1 0 0 1-1-1V1a1 1 0 0 1 1-1z" style="fill:var(--color1, #fff)"/><path fill="#9a9a9a" d="M13.867 14.955a2.481 2.481 0 0 0-.367-.156v3.085a2.52 2.52 0 0 0-.875-.159c-.475 0-.945.139-1.375.405v-3.103a2.671 2.671 0 0 0-2.617-.072.252.252 0 0 0-.133.226v3.098a.25.25 0 0 0 .37.223 2.128 2.128 0 0 1 1.005-.264c.518 0 .995.21 1.375.513.38-.303.857-.513 1.375-.513.363 0 .703.103 1.005.267.04.02.08.031.12.031.13 0 .25-.105.25-.254v-3.1a.25.25 0 0 0-.133-.226zm-3.117 2.928c-.285-.105-.578-.159-.875-.159s-.59.054-.875.159v-2.541a2.184 2.184 0 0 1 1.75.003v2.539zM13 13.75l-1.25 1.282v2.436L13 16.314V13.75z" style="fill:var(--color2, #9a9a9a)"/></symbol>
<symbol id="icon-plugAll116x165" viewBox="0 0 23 32"><path fill="#fff" d="M1.552 0h19.394c.857 0 1.552.695 1.552 1.552v28.897c0 .857-.695 1.552-1.552 1.552H1.552A1.552 1.552 0 0 1 0 30.449V1.552C0 .695.695 0 1.552 0z" style="fill:var(--color1, #fff)"/><path fill="#9a9a9a" d="M14.202 14.978a2.899 2.899 0 0 0-.415-.182v3.589a2.771 2.771 0 0 0-.987-.185c-.536 0-1.066.161-1.552.471v-3.61a2.982 2.982 0 0 0-1.552-.442 2.94 2.94 0 0 0-1.402.358.293.293 0 0 0-.149.263v3.604c0 .173.133.295.282.295.045 0 .09-.012.135-.036a2.346 2.346 0 0 1 1.134-.307c.584 0 1.123.245 1.552.597.429-.352.968-.597 1.552-.597.409 0 .793.119 1.134.31.045.024.09.036.135.036a.288.288 0 0 0 .282-.295V15.24a.294.294 0 0 0-.149-.263zm-3.518 3.407c-.322-.122-.652-.185-.987-.185s-.666.063-.987.185v-2.957a2.396 2.396 0 0 1 1.974.003v2.954zm2.539-4.809-1.41 1.492v2.835l1.41-1.343v-2.984z" style="fill:var(--color2, #9a9a9a)"/></symbol>
<symbol id="icon-plug335x485" viewBox="0 0 34 32"><path fill="#9a9a9a" d="M32.716 8.869a15.813 15.813 0 0 0-2.24-.953v18.801a15.321 15.321 0 0 0-5.333-.969c-2.895 0-5.76.844-8.381 2.469V9.306c-2.469-1.454-5.318-2.313-8.381-2.313-2.728 0-5.303.688-7.573 1.875-.503.25-.808.797-.808 1.375v18.88c0 .906.716 1.547 1.524 1.547.244 0 .488-.063.731-.188 1.844-.985 3.916-1.61 6.126-1.61 3.154 0 6.065 1.282 8.381 3.126 2.316-1.844 5.227-3.126 8.381-3.126 2.21 0 4.282.625 6.126 1.625.244.125.488.188.731.188.792 0 1.524-.641 1.524-1.547V10.243c0-.578-.305-1.125-.808-1.375zM13.714 26.717c-1.737-.641-3.52-.969-5.333-.969s-3.596.328-5.333.969V11.229a13.263 13.263 0 0 1 5.333-1.11c1.829 0 3.642.391 5.333 1.125v15.473zM27.429 1.524 19.81 9.338v14.847l7.619-7.033V1.523z" style="fill:var(--color2, #9a9a9a)"/></symbol>
<symbol id="icon-plug216x316" viewBox="0 0 33 32"><path fill="#9a9a9a" d="M32.306 9.388a15.727 15.727 0 0 0-2.212-.932v18.38a15.28 15.28 0 0 0-5.266-.947c-2.859 0-5.688.825-8.276 2.414V9.816c-2.438-1.421-5.251-2.261-8.276-2.261-2.693 0-5.236.672-7.478 1.833-.497.244-.797.779-.797 1.345v18.456c0 .886.707 1.513 1.505 1.513.241 0 .482-.061.722-.183 1.821-.963 3.867-1.574 6.049-1.574 3.115 0 5.989 1.253 8.276 3.056 2.287-1.803 5.161-3.056 8.276-3.056 2.182 0 4.228.611 6.049 1.589.241.122.482.183.722.183.782 0 1.505-.626 1.505-1.513V10.732c0-.565-.301-1.1-.798-1.345zM13.542 26.836c-1.715-.626-3.476-.947-5.266-.947s-3.551.321-5.266.947V11.695a13.221 13.221 0 0 1 5.266-1.085c1.806 0 3.596.382 5.266 1.1v15.126zM27.085 2.207l-7.524 7.639v14.515l7.524-6.875V2.208z" style="fill:var(--color2, #9a9a9a)"/></symbol>
<symbol id="icon-plug180x256" viewBox="0 0 32 32"><path fill="#9a9a9a" d="M31.229 9.921a15.221 15.221 0 0 0-2.138-.91v17.947A14.622 14.622 0 0 0 24 26.033c-2.764 0-5.498.806-8 2.357V10.339c-2.356-1.387-5.076-2.208-8-2.208-2.604 0-5.062.656-7.229 1.79-.48.239-.771.761-.771 1.313v18.021c0 .865.684 1.477 1.455 1.477.233 0 .465-.06.698-.179 1.76-.94 3.738-1.537 5.847-1.537 3.011 0 5.789 1.223 8 2.984 2.211-1.76 4.989-2.984 8-2.984 2.109 0 4.087.597 5.847 1.552.233.119.465.179.698.179.756 0 1.455-.612 1.455-1.477V11.234c0-.552-.291-1.074-.771-1.313zM13.091 26.958c-1.658-.612-3.36-.925-5.091-.925s-3.433.313-5.091.925V12.174a12.672 12.672 0 0 1 10.182.015v14.769zM26.182 2.909l-7.273 7.459V24.54l7.273-6.713V2.909z" style="fill:var(--color2, #9a9a9a)"/></symbol>
<symbol id="icon-plug116x165" viewBox="0 0 30 32"><path fill="#9a9a9a" d="M29.392 10.57a13.954 13.954 0 0 0-2.012-.883v17.419a13.392 13.392 0 0 0-4.791-.898c-2.601 0-5.175.782-7.529 2.288v-17.52c-2.218-1.347-4.778-2.143-7.529-2.143-2.45 0-4.764.637-6.804 1.738-.452.232-.726.738-.726 1.274v17.491c0 .84.643 1.433 1.369 1.433.219 0 .438-.058.657-.174 1.656-.912 3.518-1.491 5.503-1.491 2.834 0 5.449 1.187 7.529 2.896 2.081-1.709 4.696-2.896 7.529-2.896 1.985 0 3.847.579 5.503 1.506.219.116.438.174.657.174.712 0 1.369-.594 1.369-1.433V11.845c0-.536-.274-1.043-.726-1.274zM12.321 27.106c-1.561-.594-3.162-.898-4.791-.898s-3.231.304-4.791.898V12.757a11.624 11.624 0 0 1 4.791-1.028c1.643 0 3.272.362 4.791 1.043v14.335zM24.642 3.765l-6.845 7.24v13.756l6.845-6.516V3.765z" style="fill:var(--color2, #9a9a9a)"/></symbol>
<symbol id="icon-dump" viewBox="0 0 32 32"><path fill="#9a9a9a" d="M32 16c0 8.837-7.163 16-16 16S0 24.837 0 16 7.163 0 16 0s16 7.163 16 16z" style="fill:var(--color2, #9a9a9a)"/><path fill="none" stroke="#fff" stroke-linecap="round" stroke-linejoin="round" stroke-width="1.684" d="M13.684 9.053h4.632m-9.263 2.315h13.895m-1.544 0-.541 8.12c-.081 1.218-.122 1.827-.385 2.289a2.322 2.322 0 0 1-1.002.938c-.478.232-1.089.232-2.31.232h-2.33c-1.221 0-1.832 0-2.31-.232a2.31 2.31 0 0 1-1.002-.938c-.263-.462-.304-1.071-.385-2.289l-.541-8.12m3.858 3.474v3.86m3.088-3.86v3.86" style="stroke:var(--color1, #fff)"/></symbol>
<symbol id="icon-fi-ss-caret-down" viewBox="0 0 32 32"><path fill="#9a9a9a" d="M7.744 12h16.513l-7.423 8.391c-.221.25-.521.39-.834.39s-.613-.14-.834-.39L7.744 12z" style="fill:var(--color2, #9a9a9a)"/></symbol>
<symbol id="icon-arrow-narrow-right" viewBox="0 0 32 32"><path fill="none" stroke="#9a9a9a" stroke-linecap="round" stroke-linejoin="round" stroke-width="3.2" d="M5.333 16h21.333m.001 0-8-8m8 8-8 8" style="stroke:var(--color2, #9a9a9a)"/></symbol>
<symbol id="icon-up" viewBox="0 0 32 32"><path fill="#9a9a9a" d="M32 16c0 8.837-7.163 16-16 16S0 24.837 0 16 7.163 0 16 0s16 7.163 16 16z" opacity=".3" style="fill:var(--color2, #9a9a9a)"/><path fill="#9a9a9a" d="M29.5 16c0 7.456-6.044 13.5-13.5 13.5S2.5 23.456 2.5 16 8.544 2.5 16 2.5 29.5 8.544 29.5 16z" style="fill:var(--color2, #9a9a9a)"/><path fill="#fff" d="m11.687 17.35 4.2-4.213c.05-.05.104-.085.162-.106s.121-.031.188-.031.129.011.188.031.113.056.163.106L20.8 17.35c.117.117.175.262.175.438s-.063.325-.188.45a.6.6 0 0 1-.876 0l-3.675-3.675-3.675 3.675c-.117.117-.26.175-.431.175s-.319-.063-.444-.188a.6.6 0 0 1 0-.876z" style="fill:var(--color1, #fff)"/></symbol>
<symbol id="icon-up1" viewBox="0 0 32 32"><path fill="#9a9a9a" d="M.241 20.364V11.2h1.1v4.045h4.752V11.2h1.1v9.164h-1.1v-4.215H1.341v4.215h-1.1zm11.255.157c-.611 0-1.161-.14-1.649-.419s-.877-.672-1.165-1.178c-.279-.515-.419-1.117-.419-1.807s.144-1.287.432-1.793a3.054 3.054 0 0 1 1.165-1.191c.497-.279 1.052-.419 1.663-.419s1.161.14 1.649.419c.489.279.873.676 1.152 1.191.288.506.432 1.104.432 1.793s-.144 1.292-.432 1.807a3.058 3.058 0 0 1-1.178 1.178 3.27 3.27 0 0 1-1.649.419zm0-.943c.375 0 .724-.092 1.047-.275s.585-.458.785-.825c.201-.367.301-.82.301-1.361s-.1-.995-.301-1.361c-.192-.367-.449-.641-.772-.825s-.668-.275-1.034-.275c-.375 0-.724.092-1.047.275s-.585.458-.785.825c-.201.367-.301.82-.301 1.361s.1.995.301 1.361c.201.367.458.641.772.825.323.183.668.275 1.034.275zm5.804.786-2.461-6.493h1.152l1.951 5.433 1.964-5.433h1.126l-2.461 6.493h-1.27zm7.018.157c-.62 0-1.169-.14-1.649-.419a3.114 3.114 0 0 1-1.139-1.191c-.271-.506-.406-1.104-.406-1.793 0-.681.135-1.274.406-1.78a2.91 2.91 0 0 1 1.126-1.191c.489-.288 1.052-.432 1.689-.432.628 0 1.169.144 1.623.432.463.279.816.65 1.06 1.113a3.153 3.153 0 0 1 .354 1.78v.327h-5.171c.026.497.14.912.34 1.244.209.323.467.567.772.733a2.1 2.1 0 0 0 .995.249c.454 0 .833-.105 1.139-.314s.528-.493.668-.851h1.087a2.954 2.954 0 0 1-1.008 1.505c-.489.393-1.117.589-1.885.589zm0-5.878c-.524 0-.991.161-1.401.484-.401.314-.633.777-.694 1.388h4.084c-.026-.585-.227-1.043-.602-1.375s-.838-.497-1.388-.497zm4.011 5.721v-6.493h.995l.092 1.244c.201-.428.506-.768.916-1.021s.916-.38 1.519-.38v1.152h-.301c-.384 0-.737.07-1.06.209-.323.131-.58.358-.772.681s-.288.768-.288 1.335v3.273h-1.1z" style="fill:var(--color2, #9a9a9a)"/></symbol>
<symbol id="icon-align-left" viewBox="0 0 32 32"><path fill="none" stroke="#9a9a9a" stroke-linecap="round" stroke-linejoin="round" stroke-width="2.286" d="M22.667 13.333H4M28 8H4M28 18.667H4M22.667 24H4" style="stroke:var(--color2, #9a9a9a)"/></symbol>
<symbol id="icon-x-close" viewBox="0 0 32 32"><path fill="none" stroke="#9a9a9a" stroke-linecap="round" stroke-linejoin="round" stroke-width="3.429" d="M24 8 8 24M8 8l16 16" style="stroke:var(--color2, #9a9a9a)"/></symbol>
<symbol id="icon-cart" viewBox="0 0 32 32"><path fill="none" stroke="#9a9a9a" stroke-linecap="round" stroke-linejoin="round" stroke-width="2.286" d="M22.667 14.667v-4a6.667 6.667 0 0 0-13.334 0v4M10.4 28h11.2c2.24 0 3.36 0 4.216-.436a3.991 3.991 0 0 0 1.748-1.748C28 24.96 28 23.84 28 21.6v-.533c0-2.24 0-3.36-.436-4.216a3.991 3.991 0 0 0-1.748-1.748c-.856-.436-1.976-.436-4.216-.436H10.4c-2.24 0-3.36 0-4.216.436a3.996 3.996 0 0 0-1.748 1.748C4 17.707 4 18.827 4 21.067v.533c0 2.24 0 3.36.436 4.216a3.991 3.991 0 0 0 1.748 1.748C7.04 28 8.16 28 10.4 28z" style="stroke:var(--color2, #9a9a9a)"/></symbol>
<symbol id="icon-mail" viewBox="0 0 32 32"><path fill="none" stroke="#9a9a9a" stroke-linecap="round" stroke-linejoin="round" stroke-width="2.286" d="m28.666 24-8.857-8m-7.619 0-8.857 8M2.667 9.333l10.887 7.621c.882.617 1.322.926 1.802 1.045.423.106.866.106 1.29 0 .479-.12.92-.428 1.802-1.045l10.887-7.621M9.067 26.667h13.867c2.24 0 3.36 0 4.216-.436a3.996 3.996 0 0 0 1.748-1.748c.436-.856.436-1.976.436-4.216v-8.533c0-2.24 0-3.36-.436-4.216A3.991 3.991 0 0 0 27.15 5.77c-.856-.436-1.976-.436-4.216-.436H9.067c-2.24 0-3.36 0-4.216.436a3.991 3.991 0 0 0-1.748 1.748c-.436.856-.436 1.976-.436 4.216v8.533c0 2.24 0 3.36.436 4.216a3.996 3.996 0 0 0 1.748 1.748c.856.436 1.976.436 4.216.436z" style="stroke:var(--color2, #9a9a9a)"/></symbol>
<symbol id="icon-vector" viewBox="0 0 32 32"><path d="M32 3.223 28.777 0 16 12.777 3.223 0 0 3.223 12.777 16 0 28.777 3.223 32 16 19.223 28.777 32 32 28.777 19.223 16 32 3.223z"/></symbol>
<symbol id="icon-logo-3" viewBox="0 0 32 32"><path fill="#f6f6f6" style="fill: var(--color1, #f6f6f6)" d="M0 0l16.343 16.171 15.657 15.829v-32h-32z"></path><path fill="#f6f6f6" style="fill: var(--color1, #f6f6f6)" d="M4.457 4.229l11.943 11.829 11.257 11.486h-23.2v-23.314z"></path><path fill="#9a9a9a" style="fill: var(--color2, #9a9a9a)" d="M27.733 27.618l-11.943-11.829-11.257-11.486h23.2v23.314z"></path><path fill="#9a9a9a" style="fill: var(--color2, #9a9a9a)" d="M9.257 9.029l13.6 13.6h-13.6v-13.6z"></path><path fill="#f6f6f6" style="fill: var(--color1, #f6f6f6)" d="M9.257 9.029l13.6 13.6v-13.6h-13.6z"></path></symbol>
<symbol id="icon-logo-color" viewBox="0 0 32 32">
<path fill="#f6f6f6" style="fill: var(--color1, #f6f6f6)" d="M0 0l16.343 16.171 15.657 15.829v-32h-32z"></path>
<path fill="#f6f6f6" style="fill: var(--color1, #f6f6f6)" d="M4.457 4.229l11.943 11.829 11.257 11.486h-23.2v-23.314z"></path>
<path fill="#4f2ee8" style="fill: var(--color2, #4f2ee8)" d="M27.733 27.618l-11.943-11.829-11.257-11.486h23.2v23.314z"></path>
<path fill="#4f2ee8" style="fill: var(--color2, #4f2ee8)" d="M9.257 9.029l13.6 13.6h-13.6v-13.6z"></path>
<path fill="#f6f6f6" style="fill: var(--color1, #f6f6f6)" d="M9.257 9.029l13.6 13.6v-13.6h-13.6z"></path>
</symbol>
<symbol id="icon-logo-text" viewBox="0 0 176 32">
<path d="M22.176 8.533c0-4.731-3.497-7.406-9.545-7.406h-12.631v29.417h13.33c6.089 0 9.998-2.921 9.998-8.599 0-4.402-2.633-6.665-5.719-7.2v-0.082c2.427-0.823 4.567-2.51 4.567-6.13zM4.896 13.305v-8.023h7.858c2.921 0 4.526 1.44 4.526 4.032s-1.317 3.991-4.814 3.991h-7.57zM4.896 16.967h8.599c3.086 0 4.937 1.687 4.937 4.69 0 2.757-1.275 4.731-5.472 4.731h-8.064v-9.422z"></path>
<path d="M35.89 31.161c-6.583 0-10.574-4.567-10.574-11.109s3.991-11.109 10.574-11.109c6.583 0 10.574 4.567 10.574 11.109s-3.991 11.109-10.574 11.109zM35.89 27.623c4.114 0 6.254-3.25 6.254-7.57 0-4.361-2.139-7.57-6.254-7.57s-6.254 3.209-6.254 7.57c0 4.32 2.139 7.57 6.254 7.57z"></path>
<path d="M58.912 31.161c-6.583 0-10.574-4.567-10.574-11.109s3.991-11.109 10.574-11.109c6.583 0 10.574 4.567 10.574 11.109s-3.991 11.109-10.574 11.109zM58.912 27.623c4.114 0 6.254-3.25 6.254-7.57 0-4.361-2.139-7.57-6.254-7.57s-6.254 3.209-6.254 7.57c0 4.32 2.139 7.57 6.254 7.57z"></path>
<path d="M72.472 1.127v29.417h4.32v-7.611l2.921-2.757 6.624 10.368h5.184l-8.846-13.207 7.982-7.817h-5.307l-8.558 8.434v-16.827h-4.32z"></path>
<path d="M101.935 17.831c-3.045-0.699-5.39-0.864-5.39-3.003 0-1.481 1.399-2.469 3.991-2.469 3.374 0 4.197 1.687 4.485 3.333h4.197c-0.288-3.662-3.003-6.747-8.722-6.747-5.266 0-8.311 2.757-8.311 6.213 0 4.773 4.526 5.431 7.858 6.213 3.086 0.741 5.595 0.946 5.595 3.579 0 1.317-1.275 2.798-4.279 2.798-4.443 0-5.431-1.934-5.637-4.197h-4.197c0.206 4.443 3.127 7.611 9.915 7.611 5.102 0 8.558-2.51 8.558-6.542 0-5.019-4.197-5.883-8.064-6.789z"></path>
<path d="M124.123 8.944c-3.538 0-5.719 1.646-6.83 3.291h-0.082v-11.109h-4.32v29.417h4.32v-12.795c0-3.127 2.263-5.143 5.431-5.143 3.003 0 4.197 1.81 4.197 4.649v13.289h4.361v-14.523c0-4.814-3.086-7.077-7.077-7.077z"></path>
<path d="M144.448 27.623c-3.826 0-6.089-2.921-6.089-6.459h16.128c0-7.488-3.333-12.219-10.121-12.219-6.336 0-10.327 4.279-10.327 11.109 0 6.583 3.991 11.109 10.533 11.109 5.39 0 8.517-3.045 9.586-7.035h-4.32c-0.37 1.275-1.81 3.497-5.39 3.497zM144.366 12.359c3.497 0 5.801 2.345 5.801 5.595h-11.808c0-3.25 2.51-5.595 6.007-5.595z"></path>
<path d="M157.531 1.127v29.417h4.361v-29.417h-4.361z"></path>
<path d="M176.003 4.665v-3.538c-0.864-0.165-1.81-0.288-2.88-0.288-3.456 0-5.349 1.563-5.349 6.007v2.674h-3.003v3.538h3.003v17.486h4.361v-17.486h3.867v-3.538h-3.867v-2.304c0-2.386 1.070-2.674 3.867-2.551z"></path>
</symbol>
</defs></svg>