<svg aria-hidden="true" style="position: absolute; width: 0; height: 0; overflow: hidden;" version="1.1" xmlns="http://www.w3.org/2000/svg" xmlns:xlink="http://www.w3.org/1999/xlink">
<defs>
<symbol id="icon-image-3" viewBox="0 0 145 32">
<path d="M0 0h144.485v32h-144.485v-32z"></path>
</symbol>
<symbol id="icon-Actionagainsthunger" viewBox="0 0 51 32">
<path d="M0 0h50.939v32h-50.939v-32z"></path>
</symbol>
<symbol id="icon-internationalmedicalcorps" viewBox="0 0 118 32">
<path d="M0 0h117.943v32h-117.943v-32z"></path>
</symbol>
<symbol id="icon-medicinssansfrontieres" viewBox="0 0 91 32">
<path d="M0 0h90.553v32h-90.553v-32z"></path>
</symbol>
<symbol id="icon-projecthope" viewBox="0 0 64 32">
<path d="M0 0h64v32h-64v-32z"></path>
</symbol>
<symbol id="icon-razom" viewBox="0 0 96 32">
<path d="M0 0h96v32h-96v-32z"></path>
</symbol>
<symbol id="icon-savethechildren" viewBox="0 0 145 32">
<path d="M0 0h144.485v32h-144.485v-32z"></path>
</symbol>
<symbol id="icon-serhiyprytulacharityfoundation" viewBox="0 0 96 32">
<path d="M0 0h96v32h-96v-32z"></path>
</symbol>
<symbol id="icon-united24" viewBox="0 0 318 32">
<path d="M0 0h317.867v32h-317.867v-32z"></path>
</symbol>
<symbol id="icon-worldvision" viewBox="0 0 66 32">
<path d="M0 0h66.462v32h-66.462v-32z"></path>
</symbol>
</defs>
</svg>
